name C:\Users\u0101727\Documents\MyRepositories\upper-imu-dc\Results\main_tracking\Case_43\FLX01_linearAccelerations_groundFrame.mot
datacolumns 4
datarows 105
range 3.51000000 4.55000000
endheader 
time	radius_imu_x	radius_imu_y	radius_imu_z	
          3.51000000	          0.03203932	          9.77272124	          0.13284368	
          3.52000000	          0.01823030	          9.77309011	          0.14223182	
          3.53000000	          0.00724648	          9.77355162	          0.14855380	
          3.54000000	         -0.00069059	          9.77411428	          0.15173379	
          3.55000000	         -0.00540286	          9.77476494	          0.15185750	
          3.56000000	         -0.00673713	          9.77546609	          0.14917157	
          3.57000000	         -0.00454676	          9.77615486	          0.14406488	
          3.58000000	          0.00131851	          9.77674294	          0.13703282	
          3.59000000	          0.01101035	          9.77711728	          0.12862965	
          3.60000000	          0.02467209	          9.77714429	          0.11941447	
          3.61000000	          0.04242906	          9.77667958	          0.10989924	
          3.62000000	          0.06438231	          9.77558013	          0.10050945	
          3.63000000	          0.09060292	          9.77371405	          0.09156351	
          3.64000000	          0.12112468	          9.77096627	          0.08326698	
          3.65000000	          0.15593703	          9.76724290	          0.07571363	
          3.66000000	          0.19498220	          9.76247522	          0.06889235	
          3.67000000	          0.23815203	          9.75662081	          0.06270464	
          3.68000000	          0.28527831	          9.74965969	          0.05699621	
          3.69000000	          0.33611874	          9.74158741	          0.05159660	
          3.70000000	          0.39034565	          9.73240969	          0.04635234	
          3.71000000	          0.44754591	          9.72214251	          0.04113949	
          3.72000000	          0.50723099	          9.71081788	          0.03585298	
          3.73000000	          0.56885302	          9.69848845	          0.03038635	
          3.74000000	          0.63181971	          9.68522514	          0.02461799	
          3.75000000	          0.69550968	          9.67110791	          0.01840821	
          3.76000000	          0.75928954	          9.65621481	          0.01160267	
          3.77000000	          0.82252894	          9.64061171	          0.00404076	
          3.78000000	          0.88461041	          9.62434315	         -0.00443041	
          3.79000000	          0.94493645	          9.60742835	         -0.01394168	
          3.80000000	          1.00293948	          9.58986792	         -0.02459692	
          3.81000000	          1.05809814	          9.57166008	         -0.03647706	
          3.82000000	          1.10995521	          9.55281738	         -0.04964170	
          3.83000000	          1.15813052	          9.53337387	         -0.06411696	
          3.84000000	          1.20232478	          9.51338020	         -0.07986992	
          3.85000000	          1.24231859	          9.49289128	         -0.09678312	
          3.86000000	          1.27797217	          9.47195378	         -0.11464255	
          3.87000000	          1.30922254	          9.45059739	         -0.13314069	
          3.88000000	          1.33607191	          9.42883014	         -0.15188603	
          3.89000000	          1.35856680	          9.40663640	         -0.17041622	
          3.90000000	          1.37678211	          9.38397786	         -0.18822025	
          3.91000000	          1.39082067	          9.36079870	         -0.20477055	
          3.92000000	          1.40081645	          9.33703326	         -0.21955381	
          3.93000000	          1.40692039	          9.31261120	         -0.23208959	
          3.94000000	          1.40926570	          9.28745855	         -0.24193624	
          3.95000000	          1.40793408	          9.26150197	         -0.24869647	
          3.96000000	          1.40294214	          9.23468422	         -0.25203389	
          3.97000000	          1.39424247	          9.20698833	         -0.25169859	
          3.98000000	          1.38172547	          9.17846158	         -0.24755114	
          3.99000000	          1.36521925	          9.14923302	         -0.23957662	
          4.00000000	          1.34449374	          9.11952143	         -0.22788657	
          4.01000000	          1.31927574	          9.08963248	         -0.21270920	
          4.02000000	          1.28927600	          9.05994665	         -0.19436736	
          4.03000000	          1.25422091	          9.03089956	         -0.17324368	
          4.04000000	          1.21388041	          9.00295580	         -0.14973622	
          4.05000000	          1.16809178	          8.97657946	         -0.12421325	
          4.06000000	          1.11678110	          8.95220741	         -0.09698261	
          4.07000000	          1.05998199	          8.93022876	         -0.06828745	
          4.08000000	          0.99785335	          8.91097031	         -0.03832858	
          4.09000000	          0.93069905	          8.89468382	         -0.00729808	
          4.10000000	          0.85899032	          8.88153009	          0.02459861	
          4.11000000	          0.78338459	          8.87155820	          0.05714623	
          4.12000000	          0.70472995	          8.86468620	          0.09014283	
          4.13000000	          0.62404967	          8.86069505	          0.12342399	
          4.14000000	          0.54250607	          8.85924144	          0.15687162	
          4.15000000	          0.46134616	          8.85988338	          0.19040467	
          4.16000000	          0.38183470	          8.86210804	          0.22395894	
          4.17000000	          0.30518482	          8.86535479	          0.25746493	
          4.18000000	          0.23249755	          8.86903407	          0.29082560	
          4.19000000	          0.16471665	          8.87254957	          0.32388764	
          4.20000000	          0.10259167	          8.87532919	          0.35640360	
          4.21000000	          0.04663695	          8.87686221	          0.38799819	
          4.22000000	         -0.00291461	          8.87673642	          0.41815964	
          4.23000000	         -0.04614879	          8.87466973	          0.44626987	
          4.24000000	         -0.08347647	          8.87053273	          0.47167578	
          4.25000000	         -0.11559782	          8.86436093	          0.49379439	
          4.26000000	         -0.14343229	          8.85635484	          0.51223183	
          4.27000000	         -0.16802674	          8.84685991	          0.52688161	
          4.28000000	         -0.19044218	          8.83631896	          0.53796333	
          4.29000000	         -0.21162864	          8.82520301	          0.54598744	
          4.30000000	         -0.23232355	          8.81393969	          0.55167317	
          4.31000000	         -0.25300885	          8.80285555	          0.55586061	
          4.32000000	         -0.27392655	          8.79213719	          0.55943601	
          4.33000000	         -0.29512480	          8.78180969	          0.56326496	
          4.34000000	         -0.31651520	          8.77173545	          0.56812609	
          4.35000000	         -0.33793515	          8.76164046	          0.57464549	
          4.36000000	         -0.35920309	          8.75116443	          0.58323406	
          4.37000000	         -0.38015339	          8.73992054	          0.59403592	
          4.38000000	         -0.40065942	          8.72755562	          0.60690939	
          4.39000000	         -0.42065877	          8.71380683	          0.62145629	
          4.40000000	         -0.44017574	          8.69854385	          0.63710179	
          4.41000000	         -0.45931941	          8.68177491	          0.65320425	
          4.42000000	         -0.47825173	          8.66360463	          0.66916465	
          4.43000000	         -0.49714333	          8.64415867	          0.68451271	
          4.44000000	         -0.51614421	          8.62351634	          0.69895317	
          4.45000000	         -0.53538936	          8.60169319	          0.71236217	
          4.46000000	         -0.55504303	          8.57868808	          0.72474143	
          4.47000000	         -0.57535919	          8.55457119	          0.73615951	
          4.48000000	         -0.59671808	          8.52956697	          0.74670997	
          4.49000000	         -0.61961015	          8.50408948	          0.75649443	
          4.50000000	         -0.64457166	          8.47871612	          0.76561812	
          4.51000000	         -0.67210987	          8.45412675	          0.77418567	
          4.52000000	         -0.70265512	          8.43105270	          0.78228898	
          4.53000000	         -0.73654110	          8.41025059	          0.78996964	
          4.54000000	         -0.77400320	          8.39250016	          0.79715778	
          4.55000000	         -0.81517839	          8.37861355	          0.80360678	
